PathFileType	4	(X/Y/Z)	./resultDataOpenSim/trcMotMarkerGrf/sub09/qtm-05-07.trc
DataRate	CameraRate	NumFrames	NumMarkers	Units	OrigDataRate	OrigDataStartFrame	OrigNumFrames
250.000000	250.000000	10	24	m	250.000000	257	513
Frame#	Time	L.Toe.Tip			R.Toe.Tip			L.Ankle.Lat			R.Ankle.Lat			L.Ankle.Med			R.Ankle.Med			L.Heel			R.Heel			L.Knee.Lat			R.Knee.Lat			L.Knee.Med			R.Knee.Med			L.Thigh.Upper			R.Thigh.Upper			L.ASIS			R.ASIS			V.Sacral			L.Acromium			R.Acromium			C7			L.Elbow			R.Elbow			L.Wrist.Lat			R.Wrist.Lat
		X1	Y1	Z1	X2	Y2	Z2	X3	Y3	Z3	X4	Y4	Z4	X5	Y5	Z5	X6	Y6	Z6	X7	Y7	Z7	X8	Y8	Z8	X9	Y9	Z9	X10	Y10	Z10	X11	Y11	Z11	X12	Y12	Z12	X13	Y13	Z13	X14	Y14	Z14	X15	Y15	Z15	X16	Y16	Z16	X17	Y17	Z17	X18	Y18	Z18	X19	Y19	Z19	X20	Y20	Z20	X21	Y21	Z21	X22	Y22	Z22	X23	Y23	Z23	X24	Y24	Z24

257	1.024	0.13589914	-0.059481511	0.07030578	0.2845704	0.11282977	0.1710457	-0.0081328325	-0.014312368	0.020323517	0.15103966	0.17060065	0.1863426	0.010222733	0.0047429512	0.11513548	0.18878401	0.19606382	0.096523212	-0.083256853	-0.041172965	0.061703692	0.080947573	0.16610664	0.13041169	0.091967727	0.38761634	-0.042176972	0.3969527	0.52723957	0.23537333	0.083135531	0.39298688	0.082703433	0.40267223	0.52031555	0.10852789	0.1223832	0.81187889	-0.10476134	0.11959772	0.82359283	0.26623867	0.20933728	0.89527155	-0.042849175	0.19451947	0.90540288	0.19597707	0.041594208	0.95872635	0.072136356	0.23159477	1.3467541	-0.073495085	0.18028504	1.3590269	0.25110969	0.14326387	1.4063295	0.080719933	0.09518351	0.9998143	-0.16216149	0.0072706036	1.0359289	0.3212654	0.3160422	0.83998252	-0.13626592	0.12903221	0.79401131	0.35831969
258	1.028	0.1359333	-0.059524673	0.070407809	0.3047087	0.11213413	0.17061262	-0.0081261045	-0.013905102	0.020609287	0.16993253	0.1653279	0.18636553	0.010489797	0.0050900025	0.11538195	0.20631969	0.19251008	0.096432017	-0.0831707	-0.040531588	0.062255314	0.099805394	0.15923545	0.13060851	0.092518938	0.38787874	-0.042078251	0.40521969	0.53027062	0.23560782	0.084040442	0.39310749	0.082874327	0.41052512	0.52315094	0.10906553	0.12672233	0.81187671	-0.10431372	0.12505758	0.82379783	0.26676087	0.21432727	0.89501901	-0.042715893	0.19986221	0.90541554	0.19623541	0.046729592	0.95873544	0.07254562	0.23734159	1.3464631	-0.073334471	0.18626214	1.3589973	0.25123845	0.14912639	1.4061826	0.08060103	0.10141788	0.99904094	-0.161896	0.012606921	1.0363263	0.32161546	0.3239841	0.84160964	-0.13511745	0.13411089	0.79429848	0.35913694
259	1.032	0.1359677	-0.059598475	0.070564465	0.32486532	0.11149415	0.17020481	-0.0080724127	-0.013514695	0.020828096	0.18859902	0.16026019	0.18641953	0.010758276	0.0054318998	0.11566636	0.22393664	0.18894469	0.09637243	-0.083083902	-0.039893049	0.062837112	0.11886688	0.15237931	0.13066185	0.092987031	0.38815375	-0.041940663	0.41329128	0.5330895	0.23586361	0.085187348	0.39333219	0.082863278	0.41825766	0.5257561	0.10956471	0.13117536	0.81179925	-0.10395923	0.13051952	0.8239174	0.26727858	0.21938085	0.894702	-0.042560144	0.20520532	0.90533896	0.19649573	0.051921201	0.9586364	0.072967488	0.24311101	1.3461184	-0.073195059	0.19226025	1.358894	0.25137219	0.15492054	1.4059906	0.080360654	0.10765796	0.99820766	-0.16159194	0.018027693	1.0366129	0.32193768	0.33189002	0.8431738	-0.13397833	0.1392361	0.79448915	0.35992707
260	1.036	0.1360085	-0.059663175	0.07066933	0.34502181	0.11093057	0.16983713	-0.0079890998	-0.013139232	0.020999318	0.20701153	0.15540865	0.18648718	0.011032295	0.0057734289	0.11598677	0.24158732	0.18538724	0.096385333	-0.083009002	-0.039280153	0.063447742	0.13804164	0.14557659	0.13064589	0.093344282	0.38844735	-0.041760503	0.42119374	0.53567919	0.23618653	0.086380836	0.39365049	0.082804711	0.42589284	0.52811806	0.11002434	0.13565835	0.81165704	-0.10361103	0.13597666	0.82394731	0.26778691	0.22450889	0.89432273	-0.042372739	0.21055153	0.90517994	0.19675879	0.057185244	0.95842957	0.073427087	0.24890378	1.3457206	-0.073084194	0.19828233	1.3587148	0.25150973	0.16074681	1.405744	0.080242502	0.11388193	0.9973201	-0.16122872	0.023589244	1.0367732	0.3221709	0.33975869	0.8446727	-0.1328471	0.14440427	0.79458264	0.36068356
261	1.04	0.13606499	-0.059678378	0.070621464	0.36517394	0.11045287	0.16951035	-0.0079282157	-0.012789141	0.021217603	0.22540257	0.15070045	0.18651617	0.011319601	0.0061145874	0.11633065	0.25931987	0.18181783	0.096465939	-0.082952955	-0.038698015	0.064090347	0.15729764	0.1388553	0.13065404	0.09365987	0.38874785	-0.041578122	0.42897484	0.53805564	0.23658388	0.087527763	0.39396725	0.082802965	0.43344463	0.53022989	0.11044165	0.14015317	0.81145276	-0.10324009	0.14142803	0.82388495	0.26828777	0.22970792	0.8938771	-0.042152223	0.21590355	0.90494502	0.19702778	0.0625395	0.95810362	0.073957706	0.254699	1.3452668	-0.072992548	0.20432774	1.358457	0.25164625	0.1666324	1.4054292	0.080292623	0.12006848	0.99638041	-0.16078473	0.029298194	1.0368153	0.32230865	0.34759118	0.84609725	-0.131723	0.14961323	0.79457676	0.36139941
262	1.044	0.13613228	-0.059645284	0.070463737	0.38532548	0.11005285	0.16921781	-0.0079256426	-0.012481679	0.021567689	0.24401713	0.14606051	0.18648714	0.011646305	0.0064636439	0.11668716	0.27718882	0.17823167	0.096595291	-0.082910908	-0.038135323	0.064775956	0.1766583	0.13223095	0.13070692	0.094052244	0.38903238	-0.04145629	0.4366742	0.54024339	0.23701913	0.088657421	0.39417666	0.082863848	0.44088632	0.53209804	0.11083448	0.14466592	0.81118937	-0.10284325	0.14688249	0.82373657	0.26879005	0.23495632	0.8933542	-0.041910721	0.2212602	0.90463278	0.19730255	0.067966164	0.95767564	0.074547893	0.26047473	1.3447515	-0.072901369	0.21039236	1.3581196	0.25177973	0.17255528	1.4050318	0.080426705	0.12622525	0.99538265	-0.16026595	0.035077368	1.0367658	0.32243638	0.35538969	0.84743974	-0.13060361	0.15485085	0.79446346	0.36207047
263	1.048	0.13620088	-0.059595021	0.070325538	0.40547001	0.10971424	0.16896726	-0.0079778689	-0.012208565	0.022049121	0.26290922	0.14146666	0.18643419	0.012045249	0.0068344648	0.11705704	0.29519973	0.17466329	0.096748077	-0.082870642	-0.037578293	0.065518443	0.19616528	0.12571706	0.13076093	0.094585546	0.38928882	-0.041428088	0.44428142	0.54225182	0.23742068	0.089784905	0.39421194	0.08293963	0.44817238	0.53374266	0.11122682	0.14920004	0.81086944	-0.10243075	0.15234638	0.8235131	0.26929922	0.24021458	0.89273845	-0.041671105	0.22662146	0.9042393	0.19757999	0.073430959	0.9571754	0.075156888	0.26622722	1.3441718	-0.072797342	0.21647126	1.3577039	0.25191141	0.17849224	1.4045466	0.080568234	0.13242205	0.9943135	-0.15974536	0.040824902	1.0366504	0.32266555	0.36315782	0.84869768	-0.12948767	0.16009352	0.79423016	0.36269685
264	1.052	0.13626541	-0.059551425	0.070266368	0.42558026	0.10942211	0.16878738	-0.0080717967	-0.011925662	0.022603107	0.28197753	0.13693851	0.18639291	0.012510997	0.0072286408	0.1174479	0.3133339	0.17115694	0.096897899	-0.082823267	-0.037019178	0.066321277	0.21583958	0.11933167	0.13076255	0.095233504	0.38952415	-0.041477442	0.45173998	0.54406704	0.23773663	0.09079105	0.39412529	0.083021983	0.45533979	0.53519935	0.11156094	0.15375228	0.81049022	-0.1020175	0.15781366	0.82322305	0.26981237	0.24544721	0.89201628	-0.041452817	0.2319946	0.903767	0.19786096	0.07893087	0.9566045	0.075771113	0.2719687	1.3435311	-0.072681291	0.22256309	1.3572115	0.2520429	0.18443266	1.4039836	0.080690267	0.13876972	0.99316812	-0.15934634	0.046505491	1.0364753	0.3230317	0.37089961	0.84987174	-0.12837676	0.16532506	0.79386965	0.36328292
265	1.056	0.13631623	-0.059527225	0.070256774	0.44562986	0.10916546	0.16871514	-0.0082086143	-0.011594216	0.023180625	0.30110823	0.13251427	0.18637234	0.012989455	0.0076299888	0.11786455	0.33158534	0.16773587	0.097027392	-0.082769928	-0.036455995	0.067168605	0.23567534	0.11309817	0.13068009	0.095901409	0.38975334	-0.041552886	0.45897319	0.54565054	0.23798861	0.091495517	0.39410374	0.083158297	0.46253157	0.53650961	0.11168384	0.15831821	0.81004629	-0.10161238	0.16327216	0.82286967	0.27032499	0.25064914	0.89118567	-0.041256136	0.23738955	0.90322223	0.19815123	0.084468389	0.95596867	0.076382051	0.27771298	1.3428337	-0.072563976	0.22867193	1.3566437	0.25217676	0.19037428	1.4033509	0.080798296	0.14531064	0.99196446	-0.15912485	0.052165796	1.0362259	0.32348241	0.37861609	0.85096288	-0.12727158	0.1705687	0.79339403	0.36384163
266	1.06	0.13634372	-0.059528875	0.070253188	0.46562033	0.10893833	0.16878392	-0.0083991411	-0.011213784	0.023770108	0.32025661	0.12824349	0.18636586	0.013438591	0.0080233401	0.11830707	0.34996258	0.16440546	0.097129066	-0.082717199	-0.035888142	0.068032171	0.25565635	0.10704308	0.13050092	0.096475421	0.38998797	-0.041596145	0.46588972	0.54695183	0.23825545	0.091897281	0.3943	0.083361623	0.46982897	0.53767773	0.11153523	0.16289527	0.80953698	-0.10121567	0.16871412	0.82245317	0.27083663	0.25585308	0.89026405	-0.041055529	0.24281067	0.9026074	0.19845437	0.090008965	0.95531412	0.076946811	0.28346721	1.3420809	-0.072454273	0.23479998	1.3560021	0.25231526	0.1963232	1.4026527	0.080915329	0.15192806	0.99072928	-0.15896146	0.057871706	1.0358833	0.32395077	0.38630478	0.85197178	-0.12617038	0.17589029	0.79283554	0.36439479
